<svg width="24" height="24" viewBox="0 0 24 24" fill="none" xmlns="http://www.w3.org/2000/svg">
  <!-- Roulette wheel -->
  <circle cx="12" cy="12" r="10" fill="#1a1a2e" stroke="#8B5CF6" stroke-width="1.5"/>
  <circle cx="12" cy="12" r="7" fill="#16213e" stroke="#A78BFA" stroke-width="1"/>
  <!-- Wheel segments -->
  <path d="M12 5 L12 12 L17 7" fill="#ef4444" stroke="none"/>
  <path d="M12 12 L17 7 L19 12" fill="#1a1a2e" stroke="none"/>
  <path d="M12 12 L19 12 L17 17" fill="#ef4444" stroke="none"/>
  <path d="M12 12 L17 17 L12 19" fill="#1a1a2e" stroke="none"/>
  <path d="M12 12 L12 19 L7 17" fill="#ef4444" stroke="none"/>
  <path d="M12 12 L7 17 L5 12" fill="#1a1a2e" stroke="none"/>
  <path d="M12 12 L5 12 L7 7" fill="#ef4444" stroke="none"/>
  <path d="M12 12 L7 7 L12 5" fill="#1a1a2e" stroke="none"/>
  <!-- Center -->
  <circle cx="12" cy="12" r="2" fill="#8B5CF6"/>
  <!-- Ball -->
  <circle cx="15" cy="6" r="1.5" fill="#fbbf24"/>
</svg>
