<svg width="120" height="24" viewBox="0 0 120 24" fill="none" xmlns="http://www.w3.org/2000/svg">
  <!-- Roulette wheel icon -->
  <circle cx="12" cy="12" r="10" fill="#1a1a2e" stroke="#A78BFA" stroke-width="1.5"/>
  <circle cx="12" cy="12" r="7" fill="#16213e" stroke="#8B5CF6" stroke-width="1"/>
  <path d="M12 5 L12 12 L17 7" fill="#ef4444"/>
  <path d="M12 12 L17 7 L19 12" fill="#1a1a2e"/>
  <path d="M12 12 L19 12 L17 17" fill="#ef4444"/>
  <path d="M12 12 L17 17 L12 19" fill="#1a1a2e"/>
  <path d="M12 12 L12 19 L7 17" fill="#ef4444"/>
  <path d="M12 12 L7 17 L5 12" fill="#1a1a2e"/>
  <path d="M12 12 L5 12 L7 7" fill="#ef4444"/>
  <path d="M12 12 L7 7 L12 5" fill="#1a1a2e"/>
  <circle cx="12" cy="12" r="2" fill="#A78BFA"/>
  <circle cx="15" cy="6" r="1.5" fill="#fbbf24"/>
  <!-- Text -->
  <text x="28" y="17" font-family="system-ui, sans-serif" font-size="14" font-weight="bold" fill="#f5f5f5">SlopOS</text>
</svg>
